<svg id="Capa_1" enable-background="new 0 0 512 512" height="512" viewBox="0 0 512 512" width="512" xmlns="http://www.w3.org/2000/svg"><path d="m239.732 214.814h29.794v29.794h-29.794z"/><path d="m289.141 214.814h29.794v29.794h-29.794z"/><path d="m338.55 214.814h29.794v29.794h-29.794z"/><path d="m418.276 265.672v-103.167h-198.681v-42.01h48.872c16.55 0 30.013-13.465 30.013-30.014 0-.121.098-.219.219-.219h49.747c24.885 0 45.131-20.246 45.131-45.131s-20.246-45.131-45.13-45.131h-72.511c-16.55 0-30.013 13.464-30.013 30.013 0 .121-.099.22-.22.22h-43.623c-24.885 0-45.131 20.246-45.131 45.131 0 .065.004.13.004.196h-63.229v190.112h-69.596l.028 14.925c.117 61.836 24.285 119.951 68.052 163.642 43.772 43.697 101.942 67.761 163.792 67.761s120.02-24.064 163.792-67.761c43.766-43.691 67.934-101.806 68.052-163.642l.028-14.925zm-29.794-73.373v73.373h-168.887v-73.373zm-186.013 164.828-12.741 13.295.407 29.564h-14.769l-25.58-46.725-5.969-37.308-14.384-20.486h93.91l-27.621 28.963zm-15.725-281.763c0-8.456 6.88-15.336 15.337-15.336h43.622c16.55 0 30.014-13.465 30.014-30.014 0-.121.098-.219.219-.219h72.511c8.456 0 15.336 6.88 15.336 15.336s-6.88 15.336-15.336 15.336h-49.747c-16.55 0-30.013 13.465-30.013 30.014 0 .121-.098.219-.219.219h-48.872v-15.14h-32.844c-.002-.065-.008-.13-.008-.196zm3.057 29.991v31.699h-66.283v-31.699zm-66.283 61.493h66.283v98.825h-66.283zm-68.992 128.619h38.504l22.454 31.981 5.695 35.605 36.532 66.728h62.632l-.656-47.559 15.125-15.784-6.756-32.742 27.643-28.985v-9.244h37.897l20.007 49.834 40.184 9.122 5.178 22.009-28.781 35.988 19.172 46.857c-27.948 14.636-59.708 22.93-93.357 22.93-106.176-.001-193.608-82.488-201.473-186.74zm320.485 147.829-10.616-25.948 26.895-33.629-12.762-54.232-43.094-9.783-9.73-24.237h131.771c-4.574 60.614-36.05 113.865-82.464 147.829z"/></svg>